<svg width="91" height="96" viewBox="0 0 91 96" fill="none" xmlns="http://www.w3.org/2000/svg">
<path d="M43.7468 40.9716C43.2952 40.7569 42.9366 40.7193 42.7086 40.5002C32.4772 34.3522 22.8566 27.4317 14.6723 18.5144C10.9687 14.473 7.92684 9.97106 5.1506 5.32965C4.41117 4.13666 3.5367 2.90162 2.70873 1.75513C2.38773 1.35894 1.9317 0.920724 1.48012 0.706064C1.21006 0.621981 0.674404 0.677375 0.455293 0.905388C0.236184 1.1334 0.29158 1.66906 0.431059 1.93467C6.96878 13.5238 14.9606 24.0105 25.7213 32.0266C31.2599 36.1209 36.8406 40.0803 42.813 43.495C43.4461 43.8403 44.3072 44.4046 44.4976 44.9823C46.9731 52.4924 51.6575 58.6167 57.0878 64.0104C65.4403 72.3875 74.1424 80.3552 82.7139 88.5043C83.2165 89.0311 83.854 89.5999 84.2304 90.5317C76.5096 89.1646 68.8308 87.6625 60.9749 86.2533C60.7781 87.5992 61.3271 88.2145 62.1417 88.6903C63.0914 89.2081 64.0875 89.8145 65.1677 90.1508C71.151 91.8657 77.1343 93.5805 83.1596 95.1602C84.4634 95.4921 85.8512 95.5539 87.1926 95.5272C89.8289 95.3853 90.9996 93.528 90.1449 91.0402C88.3935 86.1994 86.6001 81.4937 84.6716 76.746C84.1513 75.325 83.2016 74.8071 82.1347 75.1415C81.2029 75.5179 80.7315 76.5561 81.1633 78.0236C81.9295 80.5579 82.8727 82.9993 83.7783 85.7993C83.2803 85.4961 83.0102 85.412 82.7822 85.1929C74.5183 76.7692 66.1659 68.3921 58.0325 59.7869C55.5664 57.2417 53.5806 54.1054 51.5106 51.2391C50.6827 50.0926 50.1623 48.6716 49.3255 47.078C50.2242 47.2837 50.8993 47.4939 51.4394 47.6621C55.6762 49.2775 60.1277 50.4413 64.6964 50.7529C68.7714 50.9849 72.6516 50.4156 76.3236 48.3743C77.5166 47.6349 78.7981 46.849 79.8517 45.8439C84.5504 41.4563 84.8685 34.964 80.6069 29.8602C75.4244 23.4328 63.6503 18.4338 53.3382 23.962C47.4949 27.0306 44.5095 32.0998 43.8793 38.6429C43.8042 39.3601 43.7755 40.1658 43.7468 40.9716ZM75.1103 45.8489C71.6995 47.5271 68.4015 48.1295 64.9971 47.8842C59.5807 47.6789 54.4496 46.0813 49.5332 44.0322C48.4065 43.6073 47.988 42.8105 47.7422 41.6971C46.6857 35.8138 50.0451 29.3057 55.3617 26.7397C62.5839 23.2859 73.0053 25.4938 78.1833 31.6977C81.7099 35.8321 81.3142 40.6708 77.3148 44.2394C76.5224 44.8814 75.595 45.4814 75.1103 45.8489Z" fill="#FF6633"/>
</svg>
