<svg width="176" height="38" viewBox="0 0 176 38" fill="none" xmlns="http://www.w3.org/2000/svg">
<g opacity="0.9" clip-path="url(#clip0_743_38284)">
<path d="M62.2705 21.5471L61.2275 24.4991H61.1405C60.9667 23.8334 60.648 22.8205 60.1265 21.605L54.5346 7.56882H49.0586V29.9399H52.6803V16.1352C52.6803 15.267 52.6803 14.283 52.6513 13.0675C52.6223 12.4598 52.5644 11.9967 52.5354 11.6494H52.6223C52.7962 12.5177 52.999 13.1544 53.1439 13.5595L59.8657 29.882H62.4154L69.0793 13.4148C69.2242 13.0386 69.369 12.2861 69.5139 11.6494H69.6008C69.5139 13.2991 69.4559 14.775 69.427 15.6722V29.8531H73.2804V7.51094H68.0073L62.2705 21.5471ZM76.9311 13.82H80.6977V29.8531H76.9311V13.82ZM78.8434 7.04789C78.2059 7.04789 77.6844 7.27942 77.2498 7.68458C76.8152 8.08975 76.5834 8.61068 76.5834 9.24737C76.5834 9.85513 76.8152 10.3761 77.2498 10.7812C77.6844 11.1864 78.2059 11.389 78.8434 11.389C79.4808 11.389 80.0313 11.1575 80.4369 10.7812C80.8715 10.3761 81.1033 9.85513 81.1033 9.24737C81.1033 8.63962 80.8715 8.11869 80.4369 7.68458C80.0602 7.27942 79.5098 7.04789 78.8434 7.04789ZM94.0545 13.6753C93.3591 13.5306 92.6348 13.4438 91.9394 13.4438C90.23 13.4438 88.6654 13.82 87.3616 14.5724C86.0578 15.3249 85.0147 16.3668 84.3483 17.6691C83.653 19.0003 83.3053 20.5342 83.3053 22.2996C83.3053 23.8334 83.653 25.1936 84.3194 26.4381C84.9857 27.6536 85.9129 28.6376 87.1588 29.3032C88.3467 29.9688 89.7374 30.3161 91.302 30.3161C93.0983 30.3161 94.6339 29.9399 95.8508 29.2453L95.8798 29.2164V25.7435L95.7349 25.8593C95.1844 26.2644 94.547 26.6117 93.9096 26.8143C93.2432 27.0458 92.6348 27.1616 92.1132 27.1616C90.6066 27.1616 89.4187 26.7275 88.5785 25.7724C87.7093 24.8463 87.2747 23.573 87.2747 21.9812C87.2747 20.3316 87.7093 19.0293 88.6074 18.0742C89.5056 17.1192 90.6935 16.6272 92.1422 16.6272C93.3591 16.6272 94.605 17.0324 95.7349 17.8427L95.8798 17.9585V14.283L95.8508 14.2541C95.3583 14.0515 94.8078 13.82 94.0545 13.6753ZM106.484 13.5595C105.557 13.5595 104.688 13.8489 103.934 14.4567C103.297 14.9776 102.862 15.7301 102.486 16.6272H102.457V13.82H98.6902V29.8531H102.457V21.6629C102.457 20.2737 102.747 19.1161 103.384 18.2768C104.021 17.4086 104.833 16.9745 105.818 16.9745C106.165 16.9745 106.513 17.0613 106.948 17.1192C107.353 17.235 107.643 17.3507 107.846 17.4954L107.991 17.6112V13.8489L107.904 13.82C107.643 13.6463 107.122 13.5595 106.484 13.5595ZM116.741 13.4727C114.104 13.4727 111.989 14.2541 110.511 15.7879C109.005 17.3218 108.28 19.4345 108.28 22.097C108.28 24.5859 109.034 26.6117 110.482 28.0877C111.931 29.5347 113.901 30.2872 116.364 30.2872C118.943 30.2872 121 29.5058 122.477 27.943C123.984 26.3802 124.708 24.2965 124.708 21.7208C124.708 19.174 124.013 17.1481 122.593 15.6722C121.232 14.1962 119.232 13.4727 116.741 13.4727ZM119.754 25.8014C119.059 26.6985 117.958 27.1326 116.596 27.1326C115.234 27.1326 114.133 26.6985 113.351 25.7435C112.569 24.8463 112.192 23.544 112.192 21.8944C112.192 20.1869 112.597 18.8846 113.351 17.9585C114.133 17.0324 115.205 16.5693 116.567 16.5693C117.9 16.5693 118.943 17.0034 119.696 17.9006C120.449 18.7978 120.855 20.1001 120.855 21.8076C120.797 23.544 120.478 24.9042 119.754 25.8014ZM133.111 20.4763C131.923 19.9843 131.17 19.6081 130.822 19.2898C130.532 19.0003 130.387 18.5952 130.387 18.0742C130.387 17.6401 130.561 17.206 130.996 16.9166C131.43 16.6272 131.923 16.4825 132.647 16.4825C133.285 16.4825 133.951 16.5983 134.588 16.7719C135.226 16.9456 135.805 17.206 136.269 17.5533L136.414 17.6691V14.1383L136.327 14.1094C135.892 13.9357 135.313 13.7621 134.617 13.6174C133.922 13.5016 133.285 13.4438 132.763 13.4438C130.967 13.4438 129.489 13.8779 128.33 14.8329C127.171 15.7301 126.621 16.9456 126.621 18.3637C126.621 19.1161 126.737 19.7817 126.997 20.3316C127.258 20.8815 127.635 21.4024 128.156 21.8365C128.678 22.2417 129.431 22.7047 130.474 23.1388C131.343 23.5151 132.01 23.8045 132.415 24.036C132.821 24.2675 133.082 24.528 133.285 24.7306C133.429 24.9621 133.516 25.2515 133.516 25.6277C133.516 26.6985 132.705 27.2195 131.054 27.2195C130.416 27.2195 129.75 27.1037 128.968 26.8432C128.185 26.5828 127.461 26.2065 126.852 25.7724L126.708 25.6567V29.3321L126.795 29.3611C127.345 29.6215 128.011 29.7952 128.823 29.9978C129.634 30.1425 130.358 30.2582 130.996 30.2582C132.937 30.2582 134.53 29.8241 135.66 28.8691C136.819 27.943 137.428 26.7564 137.428 25.2226C137.428 24.1518 137.138 23.1967 136.501 22.4732C135.66 21.7786 134.617 21.0551 133.111 20.4763ZM147.366 13.4727C144.729 13.4727 142.614 14.2541 141.136 15.7879C139.659 17.3218 138.905 19.4345 138.905 22.097C138.905 24.5859 139.659 26.6117 141.107 28.0877C142.556 29.5347 144.526 30.2872 146.989 30.2872C149.568 30.2872 151.625 29.5058 153.102 27.943C154.609 26.3802 155.333 24.2965 155.333 21.7208C155.333 19.174 154.638 17.1481 153.218 15.6722C151.857 14.1962 149.857 13.4727 147.366 13.4727ZM150.35 25.8014C149.655 26.6985 148.554 27.1326 147.192 27.1326C145.801 27.1326 144.729 26.6985 143.947 25.7435C143.165 24.8463 142.788 23.544 142.788 21.8944C142.788 20.1869 143.194 18.8846 143.947 17.9585C144.729 17.0324 145.801 16.5693 147.163 16.5693C148.467 16.5693 149.539 17.0034 150.292 17.9006C151.045 18.7978 151.451 20.1001 151.451 21.8076C151.451 23.544 151.074 24.9042 150.35 25.8014ZM175.47 16.9166V13.82H171.674V9.07373L171.559 9.10267L167.966 10.1735L167.879 10.2024V13.82H162.2V11.7941C162.2 10.868 162.432 10.1445 162.838 9.68148C163.243 9.21843 163.852 8.98691 164.605 8.98691C165.126 8.98691 165.677 9.10267 166.285 9.36314L166.43 9.44996V6.17967L166.343 6.15073C165.822 5.97709 165.126 5.86133 164.228 5.86133C163.098 5.86133 162.113 6.12179 161.215 6.5559C160.317 7.04789 159.65 7.71352 159.158 8.61068C158.665 9.4789 158.405 10.4629 158.405 11.5916V13.82H155.768V16.8877H158.405V29.8531H162.2V16.9166H167.879V25.1647C167.879 28.5507 169.473 30.2582 172.66 30.2582C173.181 30.2582 173.732 30.1714 174.253 30.0846C174.804 29.9688 175.209 29.8241 175.441 29.7084L175.47 29.6794V26.5828L175.325 26.6985C175.093 26.8432 174.891 26.959 174.543 27.0458C174.253 27.1326 173.992 27.1616 173.79 27.1616C173.036 27.1616 172.515 26.9879 172.138 26.5538C171.79 26.1487 171.617 25.483 171.617 24.4991V16.9166H175.47Z" fill="#737373"/>
<path d="M0.5 0.0441895H18.2608V17.7848H0.5V0.0441895Z" fill="#F25022"/>
<path d="M20.1133 0.0441895H37.874V17.7848H20.1133V0.0441895Z" fill="#7FBA00"/>
<path d="M0.5 19.637H18.2608V37.3775H0.5V19.637Z" fill="#00A4EF"/>
<path d="M20.1133 19.637H37.874V37.3775H20.1133V19.637Z" fill="#FFB900"/>
</g>
<defs>
<clipPath id="clip0_743_38284">
<rect width="175" height="37.3333" fill="white" transform="translate(0.5 0.0441895)"/>
</clipPath>
</defs>
</svg>
