<svg width="176" height="40" viewBox="0 0 176 40" fill="none" xmlns="http://www.w3.org/2000/svg">
<g opacity="0.9" clip-path="url(#clip0_743_38307)">
<path d="M70.7189 22.7151L67.6726 14.3823C67.5483 14.0415 67.0732 14.0415 66.9487 14.3823L63.9029 22.7156C63.8813 22.7749 63.8741 22.8385 63.882 22.9012C63.8898 22.9639 63.9125 23.0237 63.9481 23.0755C63.9836 23.1273 64.031 23.1697 64.0862 23.1989C64.1414 23.2282 64.2027 23.2434 64.265 23.2434H70.3568C70.4191 23.2434 70.4804 23.2281 70.5356 23.1988C70.5907 23.1696 70.6381 23.1272 70.6737 23.0753C70.7092 23.0235 70.7319 22.9636 70.7397 22.9009C70.7475 22.8383 70.7403 22.7746 70.7186 22.7154L70.7189 22.7151ZM72.1261 27.3988H62.4959C62.4172 27.3989 62.3403 27.4233 62.2756 27.469C62.2109 27.5146 62.1615 27.5793 62.1341 27.6542L60.2382 32.8391C60.2108 32.9141 60.1614 32.9787 60.0967 33.0244C60.032 33.07 59.9551 33.0945 59.8764 33.0945H55.7023C55.6392 33.0945 55.5771 33.0788 55.5214 33.0488C55.4657 33.0188 55.418 32.9753 55.3827 32.9223C55.3473 32.8692 55.3253 32.8082 55.3186 32.7446C55.3119 32.6809 55.3206 32.6165 55.3441 32.5571L64.9539 8.26433C64.9827 8.19177 65.0322 8.12961 65.0961 8.08586C65.16 8.04211 65.2353 8.01877 65.3124 8.01885H69.3091C69.4666 8.01885 69.6084 8.116 69.6673 8.26433L79.2769 32.5568C79.3005 32.6163 79.3093 32.6807 79.3027 32.7445C79.296 32.8082 79.274 32.8693 79.2386 32.9224C79.2033 32.9755 79.1556 33.019 79.0998 33.0491C79.044 33.0791 78.9818 33.0948 78.9187 33.0948H74.7454C74.6666 33.0948 74.5897 33.0703 74.525 33.0245C74.4603 32.9788 74.411 32.9141 74.3836 32.8391L72.4874 27.6542C72.46 27.5793 72.4106 27.5146 72.346 27.469C72.2813 27.4233 72.2044 27.3989 72.1256 27.3988H72.1261ZM81.2325 16.5444H84.8025C84.9049 16.5444 85.0031 16.5856 85.0755 16.6591C85.1479 16.7326 85.1886 16.8322 85.1886 16.9361V32.7028C85.1886 32.8067 85.1479 32.9063 85.0755 32.9798C85.0031 33.0533 84.9049 33.0945 84.8025 33.0945H81.2325C81.1301 33.0945 81.032 33.0533 80.9596 32.9798C80.8872 32.9063 80.8465 32.8067 80.8465 32.7028V16.9358C80.8465 16.8319 80.8872 16.7323 80.9596 16.6588C81.032 16.5854 81.1301 16.5441 81.2325 16.5441V16.5444ZM98.2086 20.3796C98.2086 20.4835 98.1679 20.5832 98.0955 20.6566C98.0231 20.7301 97.9249 20.7714 97.8225 20.7714H97.7144C95.9493 20.7714 94.6545 21.2012 93.831 22.0609C93.0069 22.9206 92.5957 24.3418 92.5957 26.3239V32.7028C92.5957 32.8067 92.555 32.9063 92.4826 32.9798C92.4102 33.0533 92.312 33.0945 92.2097 33.0945H88.6747C88.5723 33.0945 88.4741 33.0533 88.4017 32.9798C88.3293 32.9063 88.2886 32.8067 88.2886 32.7028V16.9358C88.2886 16.8319 88.3293 16.7323 88.4017 16.6588C88.4741 16.5854 88.5723 16.5441 88.6747 16.5441H92.1741C92.2765 16.5441 92.3747 16.5854 92.4471 16.6588C92.5195 16.7323 92.5602 16.8319 92.5602 16.9358V20.0545H92.6309C93.0546 18.7649 93.7252 17.7744 94.6434 17.0813C95.5609 16.389 96.6907 16.0424 98.032 16.0424H98.2086V20.3794V20.3796ZM107.97 20.2339C107.868 20.2339 107.769 20.2752 107.697 20.3486C107.625 20.4221 107.584 20.5217 107.584 20.6256V27.1837C107.584 27.8525 107.713 28.3301 107.972 28.6166C108.231 28.9031 108.678 29.0464 109.313 29.0464H109.669C109.771 29.0464 109.869 29.0877 109.942 29.1612C110.014 29.2346 110.055 29.3343 110.055 29.4382V32.7383C110.055 32.8422 110.014 32.9419 109.942 33.0153C109.869 33.0888 109.771 33.1301 109.669 33.1301H108.148C106.572 33.1301 105.36 32.7182 104.512 31.8943C103.665 31.0704 103.241 29.8469 103.241 28.2225V20.6256C103.241 20.5217 103.201 20.4221 103.128 20.3486C103.056 20.2752 102.958 20.2339 102.855 20.2339H100.627C100.525 20.2339 100.426 20.1926 100.354 20.1192C100.282 20.0457 100.241 19.9461 100.241 19.8422V16.9358C100.241 16.8319 100.282 16.7323 100.354 16.6588C100.426 16.5854 100.525 16.5441 100.627 16.5441H102.856C102.958 16.5441 103.056 16.5028 103.129 16.4294C103.201 16.3559 103.242 16.2563 103.242 16.1524V10.3086C103.242 10.2047 103.282 10.1051 103.355 10.0316C103.427 9.95816 103.525 9.91689 103.628 9.91689H107.198C107.3 9.91689 107.398 9.95816 107.471 10.0316C107.543 10.1051 107.584 10.2047 107.584 10.3086V16.1524C107.584 16.2563 107.624 16.3559 107.697 16.4294C107.769 16.5028 107.867 16.5441 107.97 16.5441H110.551C110.654 16.5441 110.752 16.5854 110.824 16.6588C110.897 16.7323 110.937 16.8319 110.937 16.9358V19.8424C110.937 19.9463 110.897 20.046 110.824 20.1194C110.752 20.1929 110.654 20.2342 110.551 20.2342H107.97V20.2339ZM124.317 28.1867C125.129 27.327 125.535 26.2046 125.535 24.8192C125.535 23.4346 125.129 22.3116 124.317 21.4519C123.505 20.5922 122.44 20.1624 121.122 20.1624C119.804 20.1624 118.74 20.5922 117.927 21.4519C117.116 22.3116 116.71 23.4346 116.71 24.8192C116.71 26.2046 117.116 27.327 117.927 28.1867C118.74 29.0464 119.804 29.4763 121.122 29.4763C122.44 29.4763 123.505 29.0464 124.317 28.1867ZM116.074 32.5929C114.874 31.9006 113.926 30.8912 113.233 29.5659C112.538 28.2405 112.191 26.6585 112.191 24.8192C112.191 22.9807 112.538 21.3981 113.233 20.0728C113.926 18.7474 114.874 17.7389 116.074 17.0458C117.275 16.3532 118.592 16.0069 120.028 16.0069C121.299 16.0069 122.387 16.2576 123.294 16.759C124.199 17.2605 124.923 17.9653 125.465 18.8728H125.535V16.9358C125.535 16.8319 125.576 16.7323 125.648 16.6588C125.721 16.5854 125.819 16.5441 125.921 16.5441H129.456C129.558 16.5441 129.656 16.5854 129.729 16.6588C129.801 16.7323 129.842 16.8319 129.842 16.9358V32.7026C129.842 32.8064 129.801 32.9061 129.729 32.9795C129.656 33.053 129.558 33.0943 129.456 33.0943H125.921C125.819 33.0943 125.721 33.053 125.648 32.9795C125.576 32.9061 125.535 32.8064 125.535 32.7026V30.7659H125.465C124.923 31.6739 124.199 32.3779 123.294 32.8794C122.387 33.3808 121.299 33.6315 120.028 33.6315C118.592 33.6315 117.275 33.2852 116.074 32.5929ZM144.543 28.1867C145.355 27.327 145.76 26.2046 145.76 24.8192C145.76 23.4346 145.355 22.3116 144.543 21.4519C143.731 20.5922 142.666 20.1624 141.348 20.1624C140.03 20.1624 138.965 20.5922 138.153 21.4519C137.341 22.3116 136.935 23.4346 136.935 24.8192C136.935 26.2046 137.341 27.327 138.153 28.1867C138.965 29.0464 140.03 29.4763 141.348 29.4763C142.666 29.4763 143.731 29.0464 144.543 28.1867ZM139.177 32.8794C138.271 32.3779 137.547 31.6739 137.006 30.7659H136.935V32.7026C136.935 32.8064 136.894 32.9061 136.822 32.9795C136.75 33.053 136.651 33.0943 136.549 33.0943H132.979C132.877 33.0943 132.778 33.053 132.706 32.9795C132.634 32.9061 132.593 32.8064 132.593 32.7026V8.40979C132.593 8.3059 132.634 8.20626 132.706 8.1328C132.778 8.05934 132.877 8.01807 132.979 8.01807H136.549C136.651 8.01807 136.75 8.05934 136.822 8.1328C136.894 8.20626 136.935 8.3059 136.935 8.40979V18.8725H137.006C137.547 17.965 138.271 17.2605 139.177 16.759C140.083 16.2574 141.171 16.0067 142.442 16.0067C143.878 16.0067 145.196 16.353 146.396 17.0455C147.596 17.7386 148.543 18.7472 149.238 20.0723C149.932 21.3984 150.28 22.981 150.28 24.8195C150.28 26.6587 149.932 28.2405 149.238 29.5661C148.544 30.8915 147.597 31.9008 146.396 32.5929C145.196 33.2854 143.878 33.632 142.443 33.632C141.172 33.632 140.083 33.3813 139.177 32.8796L139.177 32.8794ZM156.294 33.0945H152.724C152.622 33.0945 152.524 33.0533 152.451 32.9798C152.379 32.9063 152.338 32.8067 152.338 32.7028V8.41058C152.338 8.30668 152.379 8.20705 152.451 8.13358C152.524 8.06012 152.622 8.01885 152.724 8.01885H156.294C156.397 8.01885 156.495 8.06012 156.567 8.13358C156.64 8.20705 156.68 8.30668 156.68 8.41058V32.7028C156.68 32.8067 156.64 32.9063 156.567 32.9798C156.495 33.0533 156.397 33.0945 156.294 33.0945ZM164.716 20.3775C164.124 20.8461 163.724 21.5224 163.517 22.4072C163.46 22.6511 163.648 22.8851 163.895 22.8851H170.689C170.925 22.8851 171.11 22.671 171.072 22.4349C170.936 21.5979 170.582 20.9307 170.011 20.4313C169.34 19.8464 168.463 19.5539 167.381 19.5539C166.298 19.5539 165.409 19.8283 164.716 20.3775ZM173.417 18.3176C174.806 19.8584 175.5 22.0377 175.5 24.8552V25.3232C175.5 25.4271 175.459 25.5267 175.387 25.6002C175.315 25.6737 175.216 25.7149 175.114 25.7149H163.764C163.707 25.7151 163.651 25.7277 163.6 25.752C163.549 25.7763 163.504 25.8116 163.467 25.8555C163.431 25.8994 163.404 25.9508 163.39 26.0062C163.375 26.0616 163.372 26.1196 163.382 26.1761C163.563 27.2228 164.019 28.0543 164.751 28.6704C165.586 29.3755 166.639 29.7273 167.91 29.7273C169.551 29.7273 171.07 29.0775 172.466 27.7778C172.637 27.619 172.907 27.6527 173.039 27.8457L174.775 30.3736C174.829 30.4522 174.853 30.5484 174.842 30.6438C174.832 30.7393 174.786 30.8273 174.716 30.8912C173.864 31.6479 172.917 32.2864 171.899 32.79C170.769 33.351 169.44 33.632 167.91 33.632C166.145 33.632 164.603 33.2674 163.286 32.5393C161.967 31.8112 160.944 30.7844 160.215 29.4585C159.485 28.1332 159.12 26.5989 159.12 24.8552C159.12 23.1123 159.473 21.572 160.179 20.2342C160.885 18.8971 161.874 17.8582 163.145 17.1176C164.415 16.3778 165.898 16.0072 167.593 16.0072C170.086 16.0072 172.028 16.7776 173.417 18.3176ZM85.6549 10.7155C85.6549 12.1931 84.4744 13.391 83.018 13.391C81.5614 13.391 80.381 12.1931 80.381 10.7152C80.381 9.23738 81.5617 8.03948 83.018 8.03948C84.4744 8.03948 85.6549 9.23738 85.6549 10.7152" fill="#333333"/>
<path d="M20.8297 0.953058L3.85472 8.08064C2.91075 8.47707 2.92053 9.83793 3.87042 10.22L20.9162 17.0794C22.4139 17.6821 24.0818 17.6821 25.5794 17.0794L42.6255 10.2197C43.5751 9.83793 43.5854 8.47733 42.6409 8.0809L25.6664 0.952797C24.1178 0.302518 22.3781 0.302518 20.8295 0.952797" fill="#FCB400"/>
<path d="M24.7617 20.8248V37.9608C24.7617 38.7755 25.5716 39.3339 26.3182 39.0336L45.3124 31.5521C45.5242 31.4669 45.7059 31.3191 45.834 31.1278C45.962 30.9365 46.0304 30.7106 46.0304 30.4793V13.3436C46.0304 12.5286 45.2205 11.9705 44.4739 12.2708L25.4797 19.7523C25.2679 19.8376 25.0862 19.9854 24.9582 20.1767C24.8302 20.368 24.7617 20.5939 24.7617 20.8251" fill="#18BFFF"/>
<path d="M20.326 21.7091L14.6889 24.471L14.1165 24.7518L2.21706 30.5376C1.46301 30.9068 0.5 30.349 0.5 29.4987V13.4155C0.5 13.1078 0.655441 12.8423 0.863897 12.6425C0.949415 12.5561 1.04644 12.4822 1.15213 12.4231C1.43625 12.25 1.84184 12.2037 2.18669 12.3421L20.2313 19.5974C21.1485 19.9667 21.2205 21.2709 20.326 21.7094" fill="#F82B60"/>
<path d="M20.3253 21.7091L14.6883 24.471L0.863281 12.6422C0.948816 12.5559 1.04584 12.4821 1.15152 12.4231C1.43563 12.25 1.84122 12.2037 2.18608 12.3421L20.2306 19.5974C21.1478 19.9667 21.2199 21.2709 20.3253 21.7094" fill="black" fill-opacity="0.25"/>
</g>
<defs>
<clipPath id="clip0_743_38307">
<rect width="175" height="38.6503" fill="white" transform="translate(0.5 0.465576)"/>
</clipPath>
</defs>
</svg>
