<svg width="176" height="56" viewBox="0 0 176 56" fill="none" xmlns="http://www.w3.org/2000/svg">
<g opacity="0.9" clip-path="url(#clip0_743_38282)">
<path d="M92.7296 14.0711C92.7296 16.0471 91.1442 17.6389 89.1761 17.6389C87.2079 17.6389 85.6225 16.0471 85.6225 14.0711C85.6225 12.0952 87.1533 10.5034 89.1761 10.5034C91.1989 10.5583 92.7296 12.15 92.7296 14.0711ZM78.078 21.2615C78.078 21.5908 78.078 22.1397 78.078 22.1397C78.078 22.1397 76.3832 19.9442 72.7749 19.9442C66.8159 19.9442 62.1689 24.4999 62.1689 30.812C62.1689 37.0693 66.7612 41.6799 72.7749 41.6799C76.4379 41.6799 78.078 39.4295 78.078 39.4295V40.3626C78.078 40.8017 78.406 41.131 78.8434 41.131H83.2717V20.4931C83.2717 20.4931 79.2261 20.4931 78.8434 20.4931C78.406 20.4931 78.078 20.8773 78.078 21.2615ZM78.078 34.4895C77.2579 35.6971 75.6178 36.74 73.6497 36.74C70.1508 36.74 67.4719 34.5444 67.4719 30.812C67.4719 27.0796 70.1508 24.8841 73.6497 24.8841C75.5631 24.8841 77.3126 25.9819 78.078 27.1345V34.4895ZM86.5519 20.4931H91.8002V41.131H86.5519V20.4931ZM164.949 19.9442C161.341 19.9442 159.646 22.1397 159.646 22.1397V10.5583H154.398V41.131C154.398 41.131 158.443 41.131 158.826 41.131C159.264 41.131 159.592 40.7468 159.592 40.3626V39.4295C159.592 39.4295 161.286 41.6799 164.895 41.6799C170.854 41.6799 175.501 37.0693 175.501 30.812C175.501 24.5548 170.854 19.9442 164.949 19.9442ZM164.075 36.6851C162.052 36.6851 160.466 35.6422 159.646 34.4347V27.0796C160.466 25.9819 162.216 24.8292 164.075 24.8292C167.573 24.8292 170.252 27.0248 170.252 30.7572C170.252 34.4896 167.573 36.6851 164.075 36.6851ZM151.664 28.891V41.1859H146.416V29.4947C146.416 26.0917 145.323 24.7194 142.37 24.7194C140.785 24.7194 139.145 25.5428 138.106 26.7503V41.131H132.858V20.4931H137.013C137.45 20.4931 137.778 20.8773 137.778 21.2615V22.1397C139.309 20.5479 141.332 19.9442 143.354 19.9442C145.651 19.9442 147.564 20.6028 149.095 21.9201C150.954 23.457 151.664 25.433 151.664 28.891ZM120.12 19.9442C116.511 19.9442 114.816 22.1397 114.816 22.1397V10.5583H109.568V41.131C109.568 41.131 113.614 41.131 113.996 41.131C114.434 41.131 114.762 40.7468 114.762 40.3626V39.4295C114.762 39.4295 116.457 41.6799 120.065 41.6799C126.024 41.6799 130.671 37.0693 130.671 30.812C130.726 24.5548 126.079 19.9442 120.12 19.9442ZM119.245 36.6851C117.222 36.6851 115.637 35.6422 114.816 34.4347V27.0796C115.637 25.9819 117.386 24.8292 119.245 24.8292C122.744 24.8292 125.423 27.0248 125.423 30.7572C125.423 34.4896 122.744 36.6851 119.245 36.6851ZM105.03 19.9442C106.616 19.9442 107.436 20.2186 107.436 20.2186V25.1037C107.436 25.1037 103.062 23.6217 100.329 26.7503V41.1859H95.0805V20.4931C95.0805 20.4931 99.1261 20.4931 99.5088 20.4931C99.9461 20.4931 100.274 20.8773 100.274 21.2615V22.1397C101.258 20.987 103.39 19.9442 105.03 19.9442ZM50.5241 39.2648C50.2507 38.6062 49.9774 37.8926 49.704 37.2888C49.2667 36.3009 48.8293 35.3678 48.4466 34.4895L48.3919 34.4347C44.6197 26.2014 40.5741 17.8584 36.3098 9.62519L36.1458 9.29586C35.7084 8.47253 35.271 7.59432 34.8337 6.71611C34.287 5.72812 33.7403 4.68525 32.8655 3.69726C31.1161 1.50173 28.6012 0.294189 25.9224 0.294189C23.1889 0.294189 20.7287 1.50173 18.9246 3.58748C18.1045 4.57547 17.5031 5.61835 16.9564 6.60633C16.5191 7.48455 16.0817 8.36276 15.6444 9.18608L15.4803 9.51541C11.2707 17.7486 7.17044 26.0917 3.39818 34.3249L3.34351 34.4347C2.96082 35.3129 2.52346 36.246 2.08609 37.234C1.81274 37.8377 1.53939 38.4964 1.26604 39.2099C0.55532 41.2408 0.336638 43.1619 0.60999 45.1379C1.21137 49.2545 3.94489 52.7124 7.71714 54.2493C9.13858 54.8531 10.6147 55.1275 12.1454 55.1275C12.5828 55.1275 13.1295 55.0726 13.5669 55.0177C15.371 54.7982 17.2298 54.1944 19.0339 53.1515C21.2754 51.8891 23.4076 50.0778 25.8131 47.4432C28.2186 50.0778 30.4054 51.8891 32.5922 53.1515C34.3963 54.1944 36.2551 54.7982 38.0592 55.0177C38.4966 55.0726 39.0433 55.1275 39.4807 55.1275C41.0114 55.1275 42.5422 54.8531 43.909 54.2493C47.7359 52.7124 50.4147 49.1996 51.0161 45.1379C51.4535 43.2168 51.2348 41.2957 50.5241 39.2648ZM25.8677 42.119C22.9155 38.3866 21.0021 34.8738 20.346 31.9098C20.0727 30.6474 20.018 29.5496 20.182 28.5616C20.2913 27.6834 20.6194 26.915 21.0567 26.2563C22.0955 24.7743 23.8449 23.8412 25.8677 23.8412C27.8905 23.8412 29.6947 24.7194 30.6787 26.2563C31.1161 26.915 31.4441 27.6834 31.5534 28.5616C31.7175 29.5496 31.6628 30.7023 31.3894 31.9098C30.7334 34.8189 28.8199 38.3317 25.8677 42.119ZM47.6812 44.6988C47.2985 47.5529 45.3851 50.0229 42.7062 51.1207C41.3941 51.6696 39.9727 51.8342 38.5513 51.6696C37.1845 51.5049 35.8177 51.0658 34.3963 50.2425C32.4282 49.1447 30.46 47.4432 28.1639 44.9183C31.7721 40.4724 33.9589 36.4106 34.779 32.788C35.1617 31.0865 35.2164 29.5496 35.0524 28.1225C34.8337 26.7503 34.3416 25.4879 33.5763 24.3901C31.8815 21.9201 29.0386 20.4931 25.8677 20.4931C22.6968 20.4931 19.854 21.975 18.1592 24.3901C17.3938 25.4879 16.9018 26.7503 16.6831 28.1225C16.4644 29.5496 16.5191 31.1414 16.9564 32.788C17.7765 36.4106 20.018 40.5273 23.5716 44.9732C21.3301 47.4981 19.3073 49.1996 17.3391 50.2974C15.9177 51.1207 14.5509 51.5598 13.1842 51.7244C11.7081 51.8891 10.2867 51.6696 9.02923 51.1756C6.35038 50.0778 4.43692 47.6078 4.05423 44.7536C3.89022 43.3814 3.99956 42.0092 4.54626 40.4724C4.71027 39.9235 4.98362 39.3746 5.25698 38.7159C5.63967 37.8377 6.07703 36.9046 6.5144 35.9715L6.56907 35.8618C10.3413 27.6834 14.3869 19.3404 18.5966 11.2169L18.7606 10.8876C19.1979 10.0643 19.6353 9.18608 20.0727 8.36276C20.51 7.48455 21.0021 6.66122 21.6034 5.94768C22.7515 4.63036 24.2823 3.91681 25.9771 3.91681C27.6718 3.91681 29.2026 4.63036 30.3507 5.94768C30.9521 6.66122 31.4441 7.48455 31.8815 8.36276C32.3188 9.18608 32.7562 10.0643 33.1936 10.8876L33.3576 11.2169C37.5125 19.3953 41.5581 27.7383 45.3304 35.9166V35.9715C45.7678 36.8497 46.1504 37.8377 46.5878 38.7159C46.8612 39.3746 47.1345 39.9235 47.2985 40.4724C47.7359 41.8995 47.8999 43.2717 47.6812 44.6988Z" fill="#FF5A5F"/>
</g>
<defs>
<clipPath id="clip0_743_38282">
<rect width="175" height="54.8333" fill="white" transform="translate(0.5 0.294189)"/>
</clipPath>
</defs>
</svg>
