<svg width="176" height="52" viewBox="0 0 176 52" fill="none" xmlns="http://www.w3.org/2000/svg">
<g opacity="0.9" clip-path="url(#clip0_743_38293)">
<path fill-rule="evenodd" clip-rule="evenodd" d="M161.498 43.0239H166.51L175.182 21.047H170.221L166.636 31.9926L162.86 21.047H157.322L163.916 36.9215L161.498 43.0239ZM136.62 26.2641V37.5293H131.563V21.047H135.116L136.173 22.4869C137.548 21.3352 139.021 20.6626 140.717 20.6626C142.99 20.6626 144.718 21.3352 145.774 23C147.31 21.5909 148.942 20.6626 151.023 20.6626C154.927 20.6626 157.2 22.6795 157.2 28.1522V37.5293H152.143V28.7285C152.143 26.2001 151.119 25.4636 149.486 25.4636C148.526 25.4636 147.727 25.7194 146.83 26.2956C146.895 26.8719 146.926 27.4797 146.926 28.1522V37.5293H141.87V28.7285C141.87 26.2001 140.845 25.4636 139.181 25.4636C138.253 25.4636 137.485 25.6878 136.62 26.2641ZM118.984 27.6723H125.481C125.129 25.5284 123.977 24.5037 122.249 24.5037C120.776 24.5037 119.368 25.3681 118.984 27.6723ZM122.601 37.8498C117.736 37.8498 113.831 35.4493 113.831 29.1121C113.831 23.191 117.608 20.631 121.961 20.631C127.209 20.631 129.546 24.3111 129.546 30.1044H118.951C119.304 32.9525 121.065 33.7853 123.401 33.7853C125.661 33.7853 127.428 33.2276 128.796 32.3074L128.11 36.3185C126.804 37.3269 125.238 37.8498 122.601 37.8498ZM103.771 33.5935C104.923 33.5935 105.787 33.4008 106.683 32.7291V25.5599C105.884 25.0792 105.084 24.8558 103.932 24.8558C101.467 24.8558 100.059 26.5198 100.059 29.3039C100.059 32.025 101.5 33.5935 103.771 33.5935ZM107.676 36.3137C106.364 37.3059 104.86 37.9137 102.715 37.9137C98.2023 37.9137 94.9382 35.1296 94.9382 29.4003C94.9382 23.7033 98.6831 20.631 103.483 20.631C104.603 20.631 105.692 20.7913 106.683 21.1749V14.179H111.741V37.5293H108.54L107.676 36.3137ZM73.5117 27.7678V15.5524H78.7603V27.6723C78.7603 32.0249 80.7124 32.9209 83.4011 32.9209C86.3139 32.9209 87.8176 31.6405 87.8176 27.6723V15.5524H93.0986V27.7678C93.0986 34.9693 89.9624 37.9777 83.1453 37.9777C76.8082 37.9777 73.5117 35.3853 73.5117 27.7678Z" fill="#645A53"/>
<path fill-rule="evenodd" clip-rule="evenodd" d="M60.1332 28.6838C59.9204 28.513 59.6808 28.3981 59.4202 28.3487C57.8808 29.8832 56.0024 31.4995 54.3343 32.5856C53.5646 33.0971 52.5966 33.3529 51.9557 33.3529C50.4802 33.3529 49.8392 31.9462 49.6466 29.71C49.39 26.7066 49.2168 23.109 49.2168 17.5489C49.2168 11.8462 47.9227 7.96948 44.4749 7.66516C44.3292 7.65222 44.1819 7.64331 44.0281 7.64331C41.9117 7.64331 40.8855 8.72945 39.5387 11.478C38.3846 13.8421 36.5887 17.2931 33.2542 23.8115C30.3681 29.4357 27.1614 34.4204 24.4032 37.8714C23.6351 38.8281 23.0281 39.4853 22.4576 39.8592C22.0764 40.1101 21.7105 40.2355 21.3253 40.2355C20.2367 40.2355 19.4419 39.3169 19.1765 37.1778C19.1133 36.6696 19.0802 36.0925 19.0802 35.4426C19.0802 31.0333 20.7482 23.8755 23.6335 13.3306C25.75 5.66204 24.8524 0.422363 20.2343 0.422363C20.227 0.422363 20.2197 0.422363 20.2124 0.422363C20.2027 0.422363 20.193 0.422363 20.1825 0.422363L20.1793 0.423173C19.1336 0.435313 18.2668 0.814085 17.4315 1.47127C16.6092 2.11874 15.7861 3.51729 15.0181 5.39739C14.1521 7.51544 8.8865 18.0774 0.505762 23.5186C0.407022 25.5872 1.57814 27.6551 3.95113 27.8793C6.11127 28.0841 7.64497 27.1735 9.61977 25.847C9.47165 26.5067 9.33488 27.1234 9.21024 27.6875C9.06294 28.3536 8.93749 28.9282 8.83713 29.392C8.68659 30.0823 8.59109 30.5267 8.56276 30.6497C8.2884 31.9082 8.09254 33.1036 7.96547 34.2383C6.78383 44.801 11.6795 50.0132 17.4129 50.0132C18.3712 50.0132 19.3205 49.8991 20.2634 49.6595C26.5803 48.0578 32.6617 40.8118 39.86 24.1312C39.7508 25.9458 39.7394 27.6405 39.8179 29.2131C40.2922 38.773 44.0735 41.6413 49.4159 41.6413C53.4562 41.6413 57.2398 39.533 59.1637 36.9124C60.5751 35.059 61.1522 33.0138 61.1522 31.4161C61.1522 30.1762 60.7589 29.1864 60.1332 28.6838Z" fill="#EA5252"/>
</g>
<defs>
<clipPath id="clip0_743_38293">
<rect width="175" height="50.7378" fill="white" transform="translate(0.5 0.421875)"/>
</clipPath>
</defs>
</svg>
