<svg width="176" height="42" viewBox="0 0 176 42" fill="none" xmlns="http://www.w3.org/2000/svg">
<g opacity="0.9" clip-path="url(#clip0_743_38290)">
<path d="M152.529 20.7109C152.529 14.2538 157.469 9.70307 164.014 9.70307C170.56 9.70307 175.5 14.2538 175.5 20.7109C175.5 27.0449 170.56 31.7186 164.014 31.7186C157.469 31.7186 152.529 27.1064 152.529 20.7109ZM169.016 20.7109C169.016 17.6976 167.102 15.4837 164.076 15.4837C161.05 15.4837 159.136 17.6976 159.136 20.7109C159.136 23.7242 161.05 25.938 164.076 25.938C167.102 25.938 169.016 23.7857 169.016 20.7109ZM148.206 15.6067C148.639 16.4676 148.824 17.3901 148.824 18.374C148.824 20.7109 147.589 22.8632 145.613 24.5236C148.33 25.815 149.935 28.9513 149.935 31.9031C149.935 37.4378 145.428 41.1275 138.573 41.1275C131.719 41.1275 127.211 37.4993 127.211 31.9031C127.211 28.8898 128.817 25.8765 131.534 24.5236C129.496 22.8632 128.323 20.7109 128.323 18.374C128.323 13.5158 132.151 9.94906 138.203 9.94906C141.784 9.94906 142.834 10.564 144.872 10.564C146.23 10.564 147.157 10.3795 148.824 9.51859C149.38 9.21111 149.812 9.08811 150.182 9.08811C150.985 9.08811 151.417 9.88756 151.417 10.8715C151.479 13.0239 150.491 14.8072 148.206 15.6067ZM143.575 31.7186C143.575 29.2588 141.661 27.5369 138.635 27.5369C135.609 27.5369 133.695 29.1973 133.695 31.7186C133.695 34.0555 135.795 35.9004 138.635 35.9004C141.414 35.9004 143.575 34.0555 143.575 31.7186ZM134.621 18.743C134.621 20.8338 136.412 22.4942 138.573 22.4942C140.796 22.4942 142.525 20.8338 142.525 18.743C142.525 16.5291 140.92 14.9917 138.573 14.9917C136.289 14.9917 134.621 16.4676 134.621 18.743ZM124.247 21.1413V28.8283C124.247 30.3042 123.692 30.9192 122.086 30.9192H119.925C118.319 30.9192 117.764 30.3042 117.764 28.8283V21.3258C117.764 19.4194 117.455 18.0665 116.776 17.2056C116.035 16.2831 114.923 15.7912 113.503 15.7912C112.144 15.7912 110.909 16.2831 110.107 17.2056C109.366 18.0665 108.872 19.4194 108.872 21.2643V28.7668C108.872 30.3042 108.254 30.8577 106.71 30.8577H104.549C103.067 30.8577 102.388 30.3042 102.388 28.7668V11.548C102.388 10.564 102.882 10.1335 103.623 10.1335C104.734 10.1335 106.278 11.056 107.451 12.8394C109.18 10.81 111.836 9.76457 114.429 9.76457C117.578 9.76457 120.11 10.8715 121.777 12.7164C123.445 14.6228 124.247 17.0826 124.247 21.1413ZM90.5318 3.79946C90.5318 1.83159 92.1373 0.294189 94.2368 0.294189C96.2128 0.294189 97.9418 1.83159 97.9418 3.79946C97.9418 5.70584 96.2128 7.30473 94.2368 7.30473C92.1373 7.30473 90.5318 5.70584 90.5318 3.79946ZM90.964 28.8283V12.6549C90.964 11.179 91.5198 10.564 93.1253 10.564H95.2865C96.892 10.564 97.4478 11.179 97.4478 12.6549V28.8283C97.4478 30.3042 96.892 30.9192 95.2865 30.9192H93.1253C91.5198 30.9192 90.964 30.3042 90.964 28.8283ZM79.5402 28.8283V8.53465C79.5402 3.43048 82.4425 0.540173 84.789 0.540173C85.53 0.540173 86.024 1.03214 86.024 1.95458V28.7668C86.024 30.3042 85.4065 30.8577 83.8627 30.8577H81.7015C80.2195 30.9192 79.5402 30.3657 79.5402 28.8283ZM52.8642 20.7109C52.8642 14.2538 57.8042 9.70307 64.3497 9.70307C70.8952 9.70307 75.8352 14.2538 75.8352 20.7109C75.8352 27.0449 70.8952 31.7186 64.3497 31.7186C57.8042 31.7186 52.8642 27.1064 52.8642 20.7109ZM69.2897 20.7109C69.2897 17.6976 67.3754 15.4837 64.3497 15.4837C61.3239 15.4837 59.4097 17.6976 59.4097 20.7109C59.4097 23.7242 61.3239 25.938 64.3497 25.938C67.3754 25.938 69.2897 23.7857 69.2897 20.7109ZM49.5296 12.6549V29.8738C49.5296 30.8577 49.0356 31.2882 48.2946 31.2882C47.1831 31.2882 45.6394 30.3657 44.5279 28.6438C42.9224 30.5502 40.4524 31.6571 37.6736 31.6571C34.8949 31.6571 32.6718 30.6732 31.0046 29.1973C29.0903 27.3524 28.0406 24.5236 28.0406 20.4649V12.6549C28.0406 11.179 28.5963 10.564 30.2018 10.564H32.3631C33.9686 10.564 34.5243 11.179 34.5243 12.6549V19.9114C34.5243 22.3712 34.9566 23.6627 35.7593 24.5236C36.4386 25.2616 37.4266 25.6305 38.6616 25.6305C39.8966 25.6305 41.0699 25.1386 41.7491 24.3391C42.5519 23.4782 42.9841 22.1253 42.9841 20.0344V12.6549C42.9841 11.1175 43.6016 10.564 45.1454 10.564H47.3066C48.8504 10.5025 49.5296 11.1175 49.5296 12.6549ZM23.5946 1.95458V29.8738C23.5946 30.8577 23.1006 31.2882 22.3596 31.2882C21.2481 31.2882 19.7043 30.3657 18.5928 28.7053C17.2343 30.3042 14.4555 31.7186 11.2445 31.7186C4.82251 31.7186 0.5 27.0449 0.5 20.7109C0.5 14.4998 4.88426 9.70307 11.2445 9.70307C13.591 9.70307 15.6288 10.441 17.1725 11.4865V8.53465C17.1725 3.43048 20.0748 0.540173 22.4213 0.540173C23.1623 0.540173 23.5946 1.03214 23.5946 1.95458ZM17.1725 20.7109C17.1725 17.5746 14.9495 15.4837 12.1708 15.4837C9.33028 15.4837 7.10727 17.5746 7.10727 20.7109C7.10727 23.8471 9.33028 25.938 12.1708 25.938C14.9495 25.938 17.1725 23.9086 17.1725 20.7109Z" fill="#58CC02"/>
</g>
<defs>
<clipPath id="clip0_743_38290">
<rect width="175" height="40.8333" fill="white" transform="translate(0.5 0.294189)"/>
</clipPath>
</defs>
</svg>
