<svg width="176" height="29" viewBox="0 0 176 29" fill="none" xmlns="http://www.w3.org/2000/svg">
<g opacity="0.9" clip-path="url(#clip0_743_38271)">
<path d="M88.4567 10.2923C88.5636 8.23601 89.3009 6.55569 90.453 5.24481V3.49805H88.9218C85.8268 3.49805 83.2067 4.68416 81.6836 7.36425H81.5944V3.79295H73.6562V25.5724H81.5961V16.7802C81.5961 13.0485 82.6882 10.2031 87.094 10.2031C87.5736 10.2064 88.0224 10.2339 88.4567 10.2923Z" fill="#4A89DC"/>
<path d="M148.569 10.2128C149.229 8.28777 150.298 6.57342 151.688 5.19773V3.49634H150.16C147.064 3.49634 144.447 4.68245 142.916 7.36092H142.83V3.79287H134.887V25.5723H142.83V16.7801C142.83 13.0484 143.925 10.2031 148.331 10.2031L148.569 10.2128Z" fill="#4A89DC"/>
<path d="M104.58 9.39617C103.355 8.75937 101.65 8.33483 100.294 8.33483C99.3835 8.33483 97.8101 8.714 97.8101 9.82071C97.8101 11.3082 100.294 11.5189 101.393 11.736C105.094 12.4554 107.894 14.1552 107.894 18.1834C107.894 23.9131 102.525 26.2983 97.3288 26.2983C94.1416 26.2983 91.0061 25.4054 88.2969 23.7915L91.1763 18.3957C92.7885 19.504 95.4946 20.6043 97.4585 20.6043C98.4631 20.6043 99.9457 20.1392 99.9457 18.9499C99.9457 17.2517 97.4585 17.1626 94.9679 16.5274C92.4839 15.8906 89.9999 14.7045 89.9999 10.7978C89.9999 5.44733 94.9679 3.07349 99.8647 3.07349C102.396 3.07349 104.928 3.45427 107.236 4.47349L104.58 9.39617Z" fill="#4A89DC"/>
<path d="M175.501 25.5723H167.561V23.1499H167.473C166.077 25.3147 163.322 26.2901 160.708 26.2901C154.071 26.2901 149.406 20.8975 149.406 14.6559C149.406 8.42069 153.989 3.0686 160.619 3.0686C163.192 3.0686 165.902 4.00194 167.559 5.91073V3.79291H175.497L175.501 25.5723ZM157.61 14.7029C157.61 17.4607 159.49 19.5834 162.714 19.5834C165.942 19.5834 167.814 17.464 167.814 14.7029C167.814 12.0276 165.942 9.77856 162.714 9.77856C159.49 9.78018 157.61 12.0276 157.61 14.7029Z" fill="#4A89DC"/>
<path d="M133.633 15.9797H116.916C116.916 19.1184 118.622 20.8149 121.894 20.8149C123.595 20.8149 124.815 20.2656 125.69 18.8202H133.329C132.063 23.9584 127.043 26.2934 121.939 26.2934C114.526 26.2934 108.984 22.2149 108.984 14.7045C108.984 7.44525 114.084 3.07349 121.371 3.07349C129.137 3.07349 133.637 7.74501 133.637 15.1712L133.633 15.9797ZM126.258 11.5189C125.864 9.4383 123.9 8.08043 121.764 8.08043C119.449 8.08043 117.537 9.26492 117.049 11.5189H126.258Z" fill="#4A89DC"/>
<path d="M48.3998 14.3237C48.3917 14.1358 48.3787 13.9527 48.3641 13.7663C48.3641 13.7663 48.3641 13.7647 48.3641 13.7631C48.3641 13.7631 48.3641 13.7615 48.3641 13.7598C48.1859 11.7392 47.5183 9.84827 46.3857 8.1404C45.8801 7.37883 45.3016 6.68693 44.6551 6.06633C43.7104 5.1573 42.6167 4.40545 41.3836 3.81077C39.5282 2.92443 37.4785 2.47721 35.291 2.47721C35.0771 2.47721 34.8535 2.48045 34.6282 2.48855C33.0921 2.55822 31.6063 2.84989 30.2095 3.36355C28.8014 3.87235 27.5748 4.5448 26.5718 5.35174C26.3676 5.51378 26.1456 5.71309 25.9074 5.93184L25.7357 6.10035L25.5007 6.34989H25.5023H25.5039L25.3938 6.45846L25.3403 6.51679L25.06 6.8117C24.8525 7.04503 24.6549 7.27836 24.4701 7.50684L24.4685 7.5036L24.462 7.49711C24.078 7.96378 23.7231 8.44665 23.4623 8.88091C23.2856 9.15961 23.1123 9.44642 22.947 9.73323L20.6574 14.3626L20.6607 14.3659L20.5407 14.6008L20.288 15.1129C19.7857 16.1288 19.2477 17.1416 18.6465 17.9777C17.3065 19.4473 15.7914 20.1668 13.8438 20.1668C13.7076 20.1668 13.5683 20.1603 13.4257 20.1522C12.2525 20.1052 11.2463 19.8281 10.3535 19.2999C10.2579 19.2432 10.1655 19.1848 10.0764 19.1249C9.34722 18.6404 8.7882 18.0182 8.37014 17.242C7.89861 16.3622 7.68958 15.4629 7.71875 14.5101C7.72037 14.4842 7.72199 14.4615 7.72199 14.4404C7.78519 12.9237 8.36366 11.7441 9.52871 10.7249C9.81227 10.4802 10.1088 10.2728 10.4183 10.0881C10.462 10.0622 10.5058 10.0379 10.5495 10.0152C11.4148 9.54364 12.4 9.30869 13.5294 9.30869L13.881 9.31841C15.6748 9.38647 17.0586 9.94711 18.162 11.0409L21.6231 4.82674C20.7951 4.27258 19.8602 3.79619 18.8296 3.40892C18.7907 3.39434 18.7502 3.37813 18.7097 3.36517C18.5866 3.32142 18.465 3.27605 18.3387 3.23554C17.2433 2.86934 16.0944 2.6441 14.9116 2.54202C14.8824 2.53716 14.85 2.53392 14.8208 2.53068C14.6394 2.51934 14.4546 2.49665 14.2731 2.48855C14.0755 2.48045 13.8762 2.47721 13.6817 2.47559H13.5699C11.3938 2.48369 9.37153 2.92929 7.52269 3.81239C5.45185 4.81054 3.77315 6.26401 2.52871 8.13716C1.2875 10.0103 0.610187 12.0892 0.512965 14.3205C0.504863 14.5117 0.500002 14.7013 0.500002 14.8876C0.498381 18.0085 1.63588 20.7534 3.89792 23.0575C6.2588 25.4751 9.3294 26.7779 13.0157 26.9318C13.2523 26.9416 13.4857 26.948 13.719 26.948C15.8044 26.948 17.7343 26.577 19.4648 25.8348C19.8975 25.6501 20.3171 25.433 20.7465 25.1916C20.9799 25.0571 21.2002 24.9145 21.419 24.7622L21.581 24.6536L21.8532 24.4673C22.1806 24.2323 22.4868 23.9779 22.785 23.7073L22.8887 23.6085C23.0637 23.4416 23.2387 23.273 23.4039 23.0997L24.0245 22.398L24.2611 22.1015L24.3713 21.9395L24.4815 21.7807C25.4035 20.2316 28.4044 14.5943 28.4044 14.5943V14.583L28.5826 14.2395L28.7317 13.9705C29.1741 13.1652 29.4933 12.5932 29.9162 11.992L29.9275 11.9742C30.9144 10.5434 32.6109 9.5242 34.6104 9.35244C37.9646 9.06401 40.9039 11.2677 41.1745 14.2751C41.4435 17.2825 38.9417 19.9545 35.5875 20.2446C34.8891 20.3045 34.2102 20.2575 33.5701 20.1166L33.5539 20.123C31.0926 19.611 29.5257 17.8156 28.7528 17.0135L25.525 22.949C25.525 22.949 26.528 23.9601 27.215 24.4656C27.9037 24.9696 28.7933 25.4654 29.503 25.7733C31.2255 26.5089 33.0986 26.9497 35.1678 26.9497C35.4076 26.9497 35.359 26.9497 35.6086 26.9399C39.2917 26.786 42.5745 25.3747 44.9419 22.9571C47.1845 20.661 48.4014 18.0392 48.4127 14.9362V14.8439C48.4111 14.6721 48.4063 14.4987 48.3998 14.3237Z" fill="#4A89DC"/>
<path d="M60.7462 26.308C59.0723 26.308 57.554 26.1136 56.1913 25.7247C54.8286 25.3358 53.6651 24.7217 52.701 23.8791C51.7336 23.0365 50.9883 21.9638 50.4633 20.6626C49.9383 19.3615 49.6758 17.7929 49.6758 15.9652V3.78809H57.3353V15.8679C57.3353 17.2372 57.6626 18.2288 58.3156 18.8478C58.9702 19.4684 59.8015 19.7779 60.8093 19.7779C61.8399 19.7779 62.676 19.4895 63.3209 18.911C63.9626 18.3325 64.2867 17.3733 64.2867 16.0251V3.78809H71.9462V15.8048C71.9462 17.6973 71.6772 19.3064 71.1408 20.6302C70.6045 21.9557 69.8478 23.0381 68.8739 23.8807C67.8952 24.7233 66.7172 25.3358 65.3318 25.7263C63.9464 26.1136 62.4184 26.308 60.7462 26.308Z" fill="#4A89DC"/>
</g>
<defs>
<clipPath id="clip0_743_38271">
<rect width="175" height="27.5463" fill="white" transform="translate(0.5 0.937744)"/>
</clipPath>
</defs>
</svg>
