<svg width="176" height="58" viewBox="0 0 176 58" fill="none" xmlns="http://www.w3.org/2000/svg">
<g opacity="0.9" clip-path="url(#clip0_743_38263)">
<path d="M170.048 35.0928L174.902 38.3293C173.327 40.6501 169.558 44.6318 163.043 44.6318C154.951 44.6318 148.926 38.3718 148.926 30.4085C148.926 21.9342 155.015 16.1853 162.361 16.1853C169.75 16.1853 173.369 22.062 174.54 25.2345L175.179 26.8527L156.144 34.7309C157.592 37.584 159.849 39.0319 163.043 39.0319C166.236 39.0319 168.451 37.4563 170.048 35.0928ZM155.122 29.9614L167.833 24.6809C167.131 22.9137 165.044 21.6574 162.553 21.6574C159.38 21.6574 154.973 24.468 155.122 29.9614Z" fill="#FF302F"/>
<path d="M139.75 1.6853H145.882V43.333H139.75V1.6853Z" fill="#20B15A"/>
<path d="M130.085 17.2926H136.004V42.5878C136.004 53.0849 129.808 57.4072 122.484 57.4072C115.585 57.4072 111.433 52.7655 109.878 48.9967L115.308 46.7398C116.287 49.0606 118.651 51.8073 122.484 51.8073C127.189 51.8073 130.085 48.8903 130.085 43.4395V41.3954H129.872C128.467 43.0988 125.784 44.6318 122.377 44.6318C115.265 44.6318 108.75 38.4358 108.75 30.4512C108.75 22.424 115.265 16.1641 122.377 16.1641C125.763 16.1641 128.467 17.6758 129.872 19.3366H130.085V17.2926ZM130.511 30.4512C130.511 25.4262 127.168 21.7639 122.909 21.7639C118.608 21.7639 114.989 25.4262 114.989 30.4512C114.989 35.4123 118.608 39.0107 122.909 39.0107C127.168 39.032 130.511 35.4123 130.511 30.4512Z" fill="#3686F7"/>
<path d="M106.15 30.4085C106.15 38.6061 99.7619 44.6318 91.9264 44.6318C84.0908 44.6318 77.7031 38.6061 77.7031 30.4085C77.7031 22.1684 84.0908 16.1853 91.9264 16.1853C99.7619 16.1853 106.15 22.1471 106.15 30.4085ZM99.911 30.4085C99.911 25.2984 96.2061 21.7852 91.9051 21.7852C87.604 21.7852 83.8992 25.2984 83.8992 30.4085C83.8992 35.4761 87.604 39.0319 91.9051 39.0319C96.2274 39.0319 99.911 35.4548 99.911 30.4085Z" fill="#FFBA40"/>
<path d="M75.0871 30.3446C75.0871 38.5422 68.6994 44.5679 60.8639 44.5679C53.0283 44.5679 46.6406 38.5209 46.6406 30.3446C46.6406 22.1045 53.0283 16.1001 60.8639 16.1001C68.6994 16.1001 75.0871 22.1045 75.0871 30.3446ZM68.8698 30.3446C68.8698 25.2345 65.1649 21.7213 60.8639 21.7213C56.5628 21.7213 52.858 25.2345 52.858 30.3446C52.858 35.4122 56.5628 38.968 60.8639 38.968C65.1649 38.968 68.8698 35.4122 68.8698 30.3446Z" fill="#FF302F"/>
<path d="M23.2598 38.3932C14.3384 38.3932 7.35451 31.1964 7.35451 22.2749C7.35451 13.3535 14.3384 6.15668 23.2598 6.15668C28.0719 6.15668 31.5851 8.05169 34.1828 10.479L38.4625 6.19926C34.8428 2.72862 30.0095 0.0883789 23.2598 0.0883789C11.0381 0.0883789 0.753906 10.0532 0.753906 22.2749C0.753906 34.4967 11.0381 44.4615 23.2598 44.4615C29.8604 44.4615 34.8428 42.2897 38.7393 38.2441C42.7423 34.2412 43.9772 28.62 43.9772 24.0635C43.9772 22.6369 43.8069 21.1677 43.6152 20.0818H23.2598V26.0011H37.7599C37.334 29.7059 36.1629 32.2397 34.4383 33.9644C32.3516 36.0723 29.0513 38.3932 23.2598 38.3932Z" fill="#3686F7"/>
</g>
<defs>
<clipPath id="clip0_743_38263">
<rect width="175" height="57.4219" fill="white" transform="translate(0.5)"/>
</clipPath>
</defs>
</svg>
