<svg width="54" height="54" viewBox="0 0 54 54" fill="none" xmlns="http://www.w3.org/2000/svg">
<circle cx="26.648" cy="26.7914" r="25.2979" stroke="#FEFEFE" stroke-width="2.36429"/>
<path d="M25.8922 18.6936V20.5445" stroke="#FEFEFE" stroke-width="1.14723" stroke-linecap="round" stroke-linejoin="round"/>
<path d="M25.8922 29.0262V30.5742" stroke="#FEFEFE" stroke-width="1.14723" stroke-linecap="round" stroke-linejoin="round"/>
<path d="M25.8922 26.3986V22.7114" stroke="#FEFEFE" stroke-width="1.14723" stroke-linecap="round" stroke-linejoin="round"/>
<path fill-rule="evenodd" clip-rule="evenodd" d="M29.6042 30.7394C30.9978 30.7394 32.1265 29.6247 32.1265 28.2484V26.2656C31.2044 26.2656 30.4618 25.5322 30.4618 24.6216C30.4618 23.7109 31.2044 22.9767 32.1265 22.9767L32.1257 20.9931C32.1257 19.6169 30.9962 18.5022 29.6034 18.5022H19.3532C17.9604 18.5022 16.8309 19.6169 16.8309 20.9931L16.8301 23.0413C17.7522 23.0413 18.4949 23.7109 18.4949 24.6216C18.4949 25.5322 17.7522 26.2656 16.8301 26.2656V28.2484C16.8301 29.6247 17.9588 30.7394 19.3524 30.7394H29.6042Z" stroke="#FEFEFE" stroke-width="1.14723" stroke-linecap="round" stroke-linejoin="round"/>
</svg>
